<?xml version="1.0" encoding="iso-8859-1"?>
<!-- Generator: Adobe Illustrator 25.2.1, SVG Export Plug-In . SVG Version: 6.00 Build 0)  -->
<svg version="1.1" id="Layer_1" xmlns="http://www.w3.org/2000/svg" xmlns:xlink="http://www.w3.org/1999/xlink" x="0px" y="0px"
	 viewBox="0 0 300 110" style="enable-background:new 0 0 300 110;" xml:space="preserve">
<image style="overflow:visible;" width="309" height="251" xlink:href="F23A636A.png"  transform="matrix(0.24 0 0 0.24 0.24 43.9266)">
</image>
<image style="overflow:visible;" width="311" height="332" xlink:href="F23A636E.png"  transform="matrix(0.24 0 0 0.24 74.88 30.32)">
</image>
<image style="overflow:visible;" width="313" height="370" xlink:href="F23A6369.png"  transform="matrix(0.24 0 0 0.24 150 17.8)">
</image>
<g>
	<g>
		<defs>
			<rect id="SVGID_1_" x="225" y="3.899" width="75" height="102.268"/>
		</defs>
		<clipPath id="SVGID_2_">
			<use xlink:href="#SVGID_1_"  style="overflow:visible;"/>
		</clipPath>
		<g style="clip-path:url(#SVGID_2_);">
			<defs>
				<rect id="SVGID_3_" x="225" y="3.899" width="75" height="102.268"/>
			</defs>
			<clipPath id="SVGID_4_">
				<use xlink:href="#SVGID_3_"  style="overflow:visible;"/>
			</clipPath>
			<g style="clip-path:url(#SVGID_4_);enable-background:new    ;">
				<g>
					<defs>
						<rect id="SVGID_5_" x="227.05" y="12.143" width="71.651" height="50.873"/>
					</defs>
					<clipPath id="SVGID_6_">
						<use xlink:href="#SVGID_5_"  style="overflow:visible;"/>
					</clipPath>
					<g style="clip-path:url(#SVGID_6_);">
						<defs>
							<rect id="SVGID_7_" x="227.05" y="12.143" width="71.651" height="50.873"/>
						</defs>
						<clipPath id="SVGID_8_">
							<use xlink:href="#SVGID_7_"  style="overflow:visible;"/>
						</clipPath>
						<g style="clip-path:url(#SVGID_8_);">
							<defs>
								<rect id="SVGID_9_" x="227.05" y="12.143" width="71.651" height="50.873"/>
							</defs>
							<clipPath id="SVGID_10_">
								<use xlink:href="#SVGID_9_"  style="overflow:visible;"/>
							</clipPath>
							<path style="clip-path:url(#SVGID_10_);fill:#D6FAF6;" d="M234.406,27.562c0,0-9.419,4.264-4.301,8.22
								c0,0-6.33,3.896,0.455,6.411c0,0-10.116,8.681,3.998,7.515c0,0,1.575,10,7.571,9.877c0,0,21.723,4.471,22.723,3.206
								c0,0,14.423,1.334,24.759-9.547c0,0,1.077-3.98,5.066-3.98c0,0,8.677-4.233,0.545-9.478c0,0,6.859-6.994-1.408-8.099
								c0,0,4.225-6.625-5.906-7.683l-1.045-1.472c0,0,2.59-10.153-10.722-5.491c0,0-3.513-9.048-10.206-2.545
								c0,0-5.482-3.099-10.238,3.773c0,0-7.541-2.3-11.388,2.454C244.31,20.721,234.528,19.065,234.406,27.562"/>
						</g>
					</g>
				</g>
			</g>
		</g>
		<g style="clip-path:url(#SVGID_2_);">
			<defs>
				<rect id="SVGID_11_" x="225" y="3.899" width="75" height="102.268"/>
			</defs>
			<clipPath id="SVGID_12_">
				<use xlink:href="#SVGID_11_"  style="overflow:visible;"/>
			</clipPath>
			<path style="clip-path:url(#SVGID_12_);fill:#231F20;" d="M282.441,28.85c0,0-0.848-1.595-1.848,0.215
				c0,0-0.394,4.969,0.363,5.644c0,0,0.963,0.859,1.484-0.184C282.441,34.524,283.41,33.972,282.441,28.85"/>
			<path style="clip-path:url(#SVGID_12_);fill:none;stroke:#231F20;stroke-width:0.0895;stroke-miterlimit:10;" d="M282.441,28.85
				c0,0-0.848-1.595-1.848,0.215c0,0-0.394,4.969,0.363,5.644c0,0,0.963,0.859,1.484-0.184
				C282.441,34.524,283.41,33.972,282.441,28.85z"/>
			<path style="clip-path:url(#SVGID_12_);fill:#231F20;" d="M268.46,28.252c0,0-0.636-1.288-1.666,0c0,0-0.727,3.589-0.394,6.779
				c0,0,0.727,1.196,1.484,0C267.884,35.031,269.126,33.65,268.46,28.252"/>
			<path style="clip-path:url(#SVGID_12_);fill:none;stroke:#231F20;stroke-width:0.0895;stroke-miterlimit:10;" d="M268.46,28.252
				c0,0-0.636-1.288-1.666,0c0,0-0.727,3.589-0.394,6.779c0,0,0.727,1.196,1.484,0C267.884,35.031,269.126,33.65,268.46,28.252z"/>
			<path style="clip-path:url(#SVGID_12_);fill:#231F20;" d="M277.1,37.671c0,0-2.761-0.205-5.273,0c0,0-0.635,5.022,2.043,5.688
				C273.87,43.358,277.403,43.461,277.1,37.671"/>
			<path style="clip-path:url(#SVGID_12_);fill:none;stroke:#231F20;stroke-width:0.0895;stroke-miterlimit:10;" d="M277.1,37.671
				c0,0-2.761-0.205-5.273,0c0,0-0.635,5.022,2.043,5.688C273.87,43.358,277.403,43.461,277.1,37.671z"/>
		</g>
		<g style="clip-path:url(#SVGID_2_);">
			<defs>
				<rect id="SVGID_13_" x="225" y="3.899" width="75" height="102.268"/>
			</defs>
			<clipPath id="SVGID_14_">
				<use xlink:href="#SVGID_13_"  style="overflow:visible;"/>
			</clipPath>
			<g style="clip-path:url(#SVGID_14_);enable-background:new    ;">
				<g>
					<defs>
						<rect id="SVGID_15_" x="230.888" y="4.362" width="33.492" height="23.716"/>
					</defs>
					<clipPath id="SVGID_16_">
						<use xlink:href="#SVGID_15_"  style="overflow:visible;"/>
					</clipPath>
					<path style="clip-path:url(#SVGID_16_);fill:#FF6E6E;" d="M264.375,19.356c0,0,0.18-2.853-1.5-6.027
						c0,0-1.317-5.245-6.859-7.822c-5.542-2.577,0.227,0,0.227,0s-11.04-1.794-13.039,6.119c0,0-1.317,4.371-0.727,5.659
						c0,0-9.268,3.175-9.223,3.773c0,0-4.906,4.315-0.59,6.62c0,0,5.633,1.799,19.944-2.25
						C252.609,25.43,260.922,23.267,264.375,19.356"/>
				</g>
			</g>
			<path style="clip-path:url(#SVGID_14_);fill:#D6FAF6;" d="M247.202,10.292c0,0,2.68,0.46,2.635,4.279c0,0,0,2.669-3.089,2.393
				c0,0-1.59-0.026-1.817-3.326C244.931,13.638,244.794,10.614,247.202,10.292"/>
			<path style="clip-path:url(#SVGID_14_);fill:#FF6E6E;" d="M247.111,11.58c0,0,2.59,1.886,0.999,3.865
				c0,0-0.909,1.012-1.681-0.414C246.43,15.031,245.43,12.547,247.111,11.58"/>
		</g>
		<g style="clip-path:url(#SVGID_2_);">
			<defs>
				<rect id="SVGID_17_" x="225" y="3.899" width="75" height="102.268"/>
			</defs>
			<clipPath id="SVGID_18_">
				<use xlink:href="#SVGID_17_"  style="overflow:visible;"/>
			</clipPath>
			<path style="clip-path:url(#SVGID_18_);fill:#D6FAF6;" d="M274.96,100.749c0,0,8.359-5.061-8.45-6.395
				c0,0-15.174-2.53-25.169,3.405c0,0-8.813,3.405,1.817,5.843C243.159,103.602,260.786,106.638,274.96,100.749"/>
			<path style="clip-path:url(#SVGID_18_);fill:#D6FAF6;" d="M269.796,72.904l-0.88-2.96c0,0-18.644-5.192-27.94-0.528l4.56,1.306
				C245.536,70.722,254.986,66.62,269.796,72.904"/>
			<path style="clip-path:url(#SVGID_18_);fill:#D6FAF6;" d="M258.832,78.355c0,0-21.068-4.004-18.007-8.956l4.56,1.306
				c0,0,2.874,4.817,13.356,4.969L258.832,78.355z"/>
			<path style="clip-path:url(#SVGID_18_);fill:#D6FAF6;" d="M268.972,69.979c0,0,15.529,3.833-10.14,8.375l-0.091-2.681
				c0,0,8.087,0.454,10.903-2.787L268.972,69.979z"/>
		</g>
	</g>
</g>
</svg>
