<?xml version="1.0" encoding="utf-8"?>
<!-- Generator: Adobe Illustrator 26.0.3, SVG Export Plug-In . SVG Version: 6.00 Build 0)  -->
<svg version="1.1" xmlns="http://www.w3.org/2000/svg" xmlns:xlink="http://www.w3.org/1999/xlink" x="0px" y="0px"
	 viewBox="0 0 316 384" style="enable-background:new 0 0 316 384;" xml:space="preserve">
<style type="text/css">
	.st0{fill:#FFFFFF;enable-background:new    ;}
	.st1{fill:#FFFFFF;}
	.st2{fill:none;}
	.st3{fill:#FFDB6F;enable-background:new    ;}
	.st4{fill:#C9BC90;enable-background:new    ;}
	.st5{fill:#AFFF6F;enable-background:new    ;}
</style>
<g id="White_line">
	<path class="st0" d="M228.9,93.3c0,0-3.6,9.1-10.9,5.4c0,0-4.8-0.8-1.3-13l50.7-76.8c0,0,14.3-5.8,11.1,8.5
		C278.5,17.3,262.5,37.6,228.9,93.3z"/>
	<path class="st1" d="M172.6,107.8c0,0-9.6-1.2-1.3-15.5c0,0,23.6-56.1,34.1-62.4c0,0,11.6-1.8,6.2,12.5c0,0-10.9,16.1-31,62.4
		C180.5,104.8,176.1,109.9,172.6,107.8z"/>
	<path class="st2" d="M224.8,95.4c0,0-4.4,5.1-7.9,3c0,0-9.6-1.2-1.3-15.5"/>
	<path class="st1" d="M255.1,128.1c0,0-9.2-3.1,1.7-15.5c0,0,34.1-50.4,45.6-54.5c0,0,11.8,0.5,3.6,13.5c0,0-13.8,13.6-42.6,55.1
		C263.5,126.7,258.2,130.8,255.1,128.1z"/>
</g>
<g id="Bottom_bun">
	<path class="st3" d="M32.2,327.4c0,0-13.2,7,3.9,20.8c0,0,22.7,17.4,34,19.9c0,0,27.6,9,83.8,8.2c0,0,46.7-4.2,67.9-21.5
		c0,0,23.5-10.6,9.2-27.3L42.6,317.1C42.6,317.1,29.8,318.4,32.2,327.4z"/>
</g>
<g id="Meat">
	<path class="st4" d="M35.6,318c0,0-12.8-3.2-7.1-13.8c0,0,8.2-9,38.8-3.5l164.8,2.1c0,0,14.1,9.5,4.6,18.5c0,0-4.3,7.9-15.9,6.3
		c0,0-21.8,6-39.3,1.7c0,0-20.4,0.2-33.5-2.6c0,0-14.7,6.4-41.7-2.6c0,0-32,3.7-43.4-2.9C62.7,321.1,47.4,323.5,35.6,318z"/>
</g>
<g id="Lettuce">
	<path class="st5" d="M43,303.1c0,0-38.4,5.7-35.9-11.9c0,0,2.9-4.4,19.5-5.7c0,0,1.4-4.2,6-4.9l199.5,12.7c0,0,26.3,4.5,22.8,8.8
		c0,0,1.4,5.2-3.3,7.4c0,0-4.6,3.1-19.9-3.1c0,0-1.8-0.2-5.4,1.7c0,0-5.7,2.5-9.3-4c0,0-9.5-5-13.7,5.2c0,0-5.4,9.5-17.8,3.5
		c0,0-25.9-15.5-52.5,1.3c0,0-29.5,3.2-33.9-4.6C99.2,309.5,67.5,300,43,303.1z"/>
</g>
<g id="Top_bun">
	<path class="st3" d="M31.9,281.5c0,0-13.9-51.4,42.5-94.8c0,0,122.9-74.8,155.2,26.9c0,0,30.8,77.7,2.8,80.1
		C232.4,293.7,141,293.6,31.9,281.5z"/>
</g>
</svg>
