<?xml version="1.0" encoding="utf-8"?>
<!-- Generator: Adobe Illustrator 26.0.3, SVG Export Plug-In . SVG Version: 6.00 Build 0)  -->
<svg version="1.1" xmlns="http://www.w3.org/2000/svg" xmlns:xlink="http://www.w3.org/1999/xlink" x="0px" y="0px"
	 viewBox="0 0 697 608" style="enable-background:new 0 0 697 608;" xml:space="preserve">
<style type="text/css">
	.st0{display:none;}
	.st1{fill:#FF6E6E;enable-background:new    ;}
	.st2{fill:#FFFFFF;enable-background:new    ;}
	.st3{fill:#FFF0C1;enable-background:new    ;}
	.st4{fill:#FFDB6F;enable-background:new    ;}
	.st5{fill:#FFFFFF;}
</style>
<g id="Layer_1" class="st0">
	
		<image style="display:inline;overflow:visible;enable-background:new    ;" width="697" height="608" id="Fries" xlink:href="B798F611.png"  transform="matrix(1 0 0 1 776.6808 9.1915)">
	</image>
</g>
<g id="Package">
	<path class="st1" d="M283.7,273.4c0,0,49.8-168.7,301.6-128.1l25.9,5.2c0,0,83.7,332.4,73,342.6c0,0-29.6,82.7-206.3,114.9
		c0,0-38.3,0.7-73.4-71.1C404.5,536.9,263.9,288.7,283.7,273.4z"/>
</g>
<g id="Outer_o">
	<path class="st2" d="M492.4,290.4c0,0-89.2,40.2-17.7,148.8c0,0,31.3,35.4,83.4,9.2c0,0,39.8-11.2,33-68.8
		C591.1,379.6,574.7,262.1,492.4,290.4z"/>
</g>
<g id="Inner_o">
	<path class="st1" d="M506.3,310.8c0,0-64,21.8-17.7,105.2c0,0,9.2,30.3,54.5,12.6c0,0,30.3-7.5,23.8-46.3
		C566.9,382.3,551.3,299.2,506.3,310.8z"/>
</g>
<g id="Fries_highlights">
	<path class="st3" d="M321.3,240.1c0,0-39.7-77-70.6-146.1c0,0,2-24.2,23.5-9.9l26.6,39.8l23.7-12.9c0,0-33.7-49-41.5-73.9
		c0,0-9.7-24.2,27.1-30.6l52.8,89.4c0,0,3.9-17.1,28.5-16.3l13.8-2.1c0,0-19-25.4,0-37.3c0,0,19.9-11.5,27.1-4.2l29.7,39.8
		l37.7-10.5l60.9,121.9L321.3,240.1z"/>
</g>
<g id="Fries_00000049216434207918310600000016036994682112906160_">
	<path class="st4" d="M382.1,282.9c0,0-48.7,11.6-59.9-34.7c0,0,2-2-6.5-26.6c0,0-14.3-42.9-50.4-120.2c0,0,2.4-20.1,20.4-7.8
		c0,0,19.1,32.7,45.3,104.9c0,0,3.6,2.4,6.6-3.4c0,0-24.9-62.1-29.1-65.5c0,0-7.3-16.7,15.8-14.5c0,0,9.2,4.8,31.5,63.8
		c0,0,7-2.6,14.3-10.9c0,0,3.8-0.2-11-20.9l-60-108.3c0,0-15.1-23,11-32.4c0,0,7.9-1.3,15.6,14.6c0,0,66.1,134.6,68.4,133.5
		c0,0,10-1.5,16.6-6.1c0,0-39.3-47.7-22.5-60c0,0-1.3-16.6,19.9-10.2c0,0,27.8,60.5,31.4,59.2l15.6-7.7c0,0-35.5-61.3-37.3-62.6
		c0,0-19.9-24.5,3.6-32.7c0,0,22.5-1.5,28.3,18.4l36,66.6l10.5-1.3c0,0-27.8-36.5-12.3-47c0,0,21.4-15.8,27.6,3.3
		c0,0,61.3,103.9,51.3,108.8C562.9,183.4,511.9,281,382.1,282.9z"/>
</g>
<g id="White_lines">
	<path class="st5" d="M18.9,232.2c0,0-9.2-8.5,1.7-11.6c0,0,0.7-1.5,8.4,5.9c7.8,7.5,7.8,7.5,7.8,7.5s43.8,48.3,156.9,150
		c0,0,10.2,8.6,3.3,13.6c0,0-5.7,2.7-12.1-6.2C185,391.5,82.8,310.9,18.9,232.2z"/>
	<path class="st5" d="M-4.2,91.5c0,0-8-6.6,1.7-8.8c0,0,0.6-1.2,7.4,4.6c6.8,5.8,6.8,5.8,6.8,5.8s38.1,37.4,136.6,116.6
		c0,0,8.9,6.7,2.7,10.4c0,0-5.1,2-10.6-4.9C140.4,215.3,51.2,152.4-4.2,91.5z"/>
	<path class="st5" d="M111.2,32.3c0,0-6.4-6.6,2.9-6.4c0,0,0.7-0.8,6.1,5s5.4,5.8,5.4,5.8S155.3,73,234.8,153.1c0,0,7.3,6.9,0.9,8.6
		c0,0-5,0.5-9.1-5.8C226.6,155.8,153.3,90,111.2,32.3z"/>
	<path class="st5" d="M255.9,15.1c0,0,3.5,5.7-3.1,3.8c0,0-0.7,0.4-3.6-4.6s-2.9-4.9-2.9-4.9S230.9-20.7,187-90.1c0,0-4.1-6,0.7-6
		c0,0,3.7,0.6,5.6,5.7C193.2-90.4,235.1-32,255.9,15.1z"/>
</g>
</svg>
